<?xml version="1.0" encoding="UTF-8"?>
<svg version="1.1" xmlns="http://www.w3.org/2000/svg" width="1275" height="1275">
<path d="M0 0 C0.96443275 -0.00625837 1.92886551 -0.01251675 2.9225235 -0.01896477 C10.22567198 -0.06498418 17.52875504 -0.08846175 24.83203125 -0.1015625 C25.90196949 -0.10371639 26.97190773 -0.10587029 28.07426834 -0.10808945 C60.04090399 -0.16004064 91.53769347 0.3494995 123.23425293 4.9284668 C125.60918019 5.26837789 127.98588686 5.58946681 130.36425781 5.90429688 C201.56670601 15.38341392 269.36582629 42.55387296 329.64453125 81.2734375 C330.23621094 81.65306641 330.82789063 82.03269531 331.4375 82.42382812 C349.03546202 93.78646286 366.10633504 106.2405968 382.375 119.43359375 C383.88925368 120.66115568 385.41279249 121.87735083 386.9453125 123.08203125 C392.97941425 127.83228156 398.78663928 132.81508508 404.55541992 137.8815918 C405.1713501 138.42082275 405.78728027 138.96005371 406.421875 139.515625 C406.97093506 139.9988623 407.51999512 140.48209961 408.08569336 140.97998047 C409.82608858 142.46989791 409.82608858 142.46989791 412.64453125 144.2734375 C412.64453125 144.9334375 412.64453125 145.5934375 412.64453125 146.2734375 C413.19625 146.49644531 413.74796875 146.71945312 414.31640625 146.94921875 C417.37509885 148.68897847 419.45191245 150.93108232 421.89453125 153.4609375 C424.97573448 156.61994632 428.05345079 159.7079487 431.45703125 162.5234375 C435.62120675 166.07779651 439.33560144 170.03993961 443.08203125 174.0234375 C443.71020752 174.68633789 444.33838379 175.34923828 444.9855957 176.03222656 C445.57300537 176.66354492 446.16041504 177.29486328 446.765625 177.9453125 C447.29599365 178.5134668 447.8263623 179.08162109 448.37280273 179.66699219 C449.64453125 181.2734375 449.64453125 181.2734375 450.64453125 184.2734375 C451.30453125 184.2734375 451.96453125 184.2734375 452.64453125 184.2734375 C453.984375 185.56640625 453.984375 185.56640625 455.58203125 187.4609375 C456.19949219 188.18667969 456.81695313 188.91242188 457.453125 189.66015625 C458.17628906 190.52253906 458.89945313 191.38492188 459.64453125 192.2734375 C460.53073481 193.3220502 461.41748368 194.37020221 462.3046875 195.41796875 C463.73781224 197.1106436 465.17021068 198.8038944 466.59985352 200.49951172 C469.04055523 203.392288 471.50094075 206.26035463 474.01953125 209.0859375 C479.24701135 215.01711684 484.14284541 221.23445043 489.11230469 227.38134766 C491.11383168 229.85295923 493.12794907 232.31410019 495.14453125 234.7734375 C495.85222656 235.6396875 496.55992187 236.5059375 497.2890625 237.3984375 C499.05135537 239.54942847 500.82039976 241.69410625 502.59375 243.8359375 C519.85416955 264.76991136 535.02346169 286.82511551 548.64453125 310.2734375 C549.13179687 311.10665527 549.6190625 311.93987305 550.12109375 312.79833984 C594.80866909 389.82167742 614.05507536 487.5506585 591.95703125 574.5859375 C584.0548355 604.12605653 572.69412731 633.35932635 554.64453125 658.2734375 C554.23283691 658.84900391 553.82114258 659.42457031 553.39697266 660.01757812 C547.12725963 668.70826945 540.03451355 676.53457191 532.64453125 684.2734375 C532.04253906 684.92828125 531.44054688 685.583125 530.8203125 686.2578125 C512.35623173 705.79160072 483.51813423 724.41227106 456.91552734 729.71459961 C450.93842798 730.69678637 450.93842798 730.69678637 446.12109375 733.98828125 C445.27571939 736.42895882 444.96244147 738.70872355 444.64453125 741.2734375 C444.07235809 743.67711231 443.46511885 746.0725835 442.83203125 748.4609375 C442.57957642 749.42640503 442.57957642 749.42640503 442.32202148 750.41137695 C438.03882264 766.34044916 429.95397816 781.43401107 418.4921875 793.3203125 C416.48012356 795.33713818 416.48012356 795.33713818 414.64453125 798.2734375 C413.98453125 798.2734375 413.32453125 798.2734375 412.64453125 798.2734375 C412.31453125 799.2634375 411.98453125 800.2534375 411.64453125 801.2734375 C382.17390238 829.7712495 343.03402964 832.11717876 304.15234375 832.82568359 C288.87438576 833.09958247 288.87438576 833.09958247 273.64453125 834.2734375 C272.4887362 838.02708769 272.37924444 841.79339594 272.21484375 845.6875 C272.14345039 847.17735771 272.07140445 848.66718425 271.9987793 850.15698242 C271.96182953 850.93206146 271.92487976 851.7071405 271.8868103 852.50570679 C269.59692005 899.22411557 253.5003058 939.95246078 218.64453125 972.2734375 C196.19429834 991.1923047 168.50419528 1003.5054834 139.64453125 1008.2734375 C138.64543826 1008.44288691 137.64634527 1008.61233631 136.61697674 1008.78692055 C132.03013071 1009.4339099 127.47327141 1009.42477242 122.84809875 1009.42733765 C121.87869911 1009.4317199 120.90929946 1009.43610215 119.91052407 1009.4406172 C116.67122298 1009.45394214 113.43194905 1009.46016978 110.19262695 1009.46630859 C107.86626566 1009.47421439 105.53990557 1009.48248363 103.21354675 1009.49108887 C95.58248049 1009.5172487 87.95140889 1009.5326082 80.3203125 1009.546875 C77.68965336 1009.55223673 75.05899426 1009.55761424 72.42833519 1009.56300735 C61.48466764 1009.58462515 50.54100136 1009.60351221 39.5973177 1009.61462975 C36.76189991 1009.61755905 33.92648215 1009.62052078 31.09106445 1009.62353516 C30.38640437 1009.62428121 29.68174429 1009.62502726 28.95573088 1009.62579592 C17.5443207 1009.63844587 6.13306645 1009.6716699 -5.27827086 1009.71333699 C-17.01260019 1009.75583004 -28.7468498 1009.77933298 -40.48125583 1009.78455031 C-47.06229518 1009.7881996 -53.6430697 1009.80017731 -60.22403526 1009.83265305 C-66.41704134 1009.86277804 -72.60962292 1009.86902932 -78.80268669 1009.85726929 C-81.0697615 1009.85704894 -83.33685628 1009.86532119 -85.60386276 1009.88292313 C-112.47500497 1010.08013082 -112.47500497 1010.08013082 -122.82421875 1000.1875 C-128.61372771 992.9506138 -131.92970165 984.57054152 -131.35546875 975.2734375 C-130.01726129 966.890704 -125.95243583 960.07594556 -120.16796875 953.9609375 C-110.84130442 948.3649389 -101.1787652 947.12540659 -90.52978516 947.1315918 C-89.55664871 947.12811737 -88.58351227 947.12464294 -87.58088684 947.12106323 C-85.47420442 947.11372974 -83.3675144 947.10837158 -81.2608223 947.10477257 C-77.92279102 947.0975825 -74.58490465 947.08189762 -71.24691772 947.06343079 C-61.75838175 947.01107496 -52.26992741 946.96298122 -42.78125 946.94750977 C-36.97107466 946.93741647 -31.16126785 946.90806164 -25.35123825 946.86618996 C-23.14175582 946.85389899 -20.93222133 946.84875521 -18.72270584 946.85098839 C-15.62805199 946.85334706 -12.5344525 946.8311324 -9.43994141 946.8034668 C-8.53370529 946.81006821 -7.62746918 946.81666962 -6.69377136 946.82347107 C0.28833099 946.72131791 5.49269032 944.93054502 10.859375 940.40625 C19.08314753 930.82117273 26.13837893 920.11313184 30.64453125 908.2734375 C30.96292969 907.45101562 31.28132813 906.62859375 31.609375 905.78125 C36.59220472 890.67202441 33.27235449 875.18180482 29.20703125 860.3359375 C28.77991208 858.7095054 28.35477398 857.08255173 27.93164062 855.45507812 C25.95410162 847.81581171 25.95410162 847.81581171 23.64453125 840.2734375 C23.5771226 838.71225322 23.55938669 837.1484123 23.58203125 835.5859375 C23.59105469 834.77769531 23.60007812 833.96945312 23.609375 833.13671875 C23.62677734 832.21439453 23.62677734 832.21439453 23.64453125 831.2734375 C22.4123491 831.27620288 22.4123491 831.27620288 21.15527439 831.27902412 C1.14867993 831.32323198 -18.85790609 831.3563081 -38.86453915 831.37706184 C-48.53967482 831.38736548 -58.21477786 831.40140836 -67.88989258 831.42431641 C-76.32471745 831.44427823 -84.75951868 831.45716057 -93.19436651 831.46161449 C-97.65872568 831.46421714 -102.12301721 831.47031548 -106.58735466 831.48489761 C-110.79388391 831.49852565 -115.00031799 831.50264962 -119.20686722 831.49965286 C-120.74630946 831.5002007 -122.28575507 831.50414693 -123.82517815 831.51184845 C-137.1101161 831.57502154 -146.72516991 830.59960229 -157.11328125 821.78125 C-163.31142872 815.52080959 -165.48617695 806.24062674 -165.85546875 797.6484375 C-165.42418491 788.37583488 -162.04057077 780.83938989 -155.640625 774.15234375 C-149.2200842 768.87323242 -141.00804429 767.14970063 -132.85926819 767.14645386 C-131.7672258 767.14363403 -130.67518341 767.14081421 -129.55004883 767.13790894 C-128.36185547 767.13993317 -127.17366211 767.1419574 -125.94946289 767.14404297 C-124.06087807 767.14141449 -124.06087807 767.14141449 -122.13414001 767.13873291 C-118.68785233 767.13418126 -115.24159464 767.13593894 -111.79530644 767.139112 C-108.18396631 767.14164786 -104.57262869 767.13929459 -100.96128845 767.13772583 C-94.896144 767.13590749 -88.83101174 767.13830142 -82.76586914 767.14306641 C-75.76140715 767.14850593 -68.75697428 767.14674727 -61.75251299 767.14124 C-55.73198354 767.13669641 -49.71146283 767.1360645 -43.69093221 767.13867867 C-40.09811421 767.14023489 -36.50530987 767.1404532 -32.91249275 767.13714218 C-28.90526745 767.13370713 -24.89809204 767.13847358 -20.89086914 767.14404297 C-19.70470001 767.14201874 -18.51853088 767.13999451 -17.29641724 767.13790894 C-16.20155502 767.14072876 -15.10669281 767.14354858 -13.97865295 767.14645386 C-13.0320131 767.14683088 -12.08537325 767.14720791 -11.11004734 767.14759636 C-8.12839027 767.28381143 -5.28775945 767.72865913 -2.35546875 768.2734375 C-1.9996875 767.16935547 -1.9996875 767.16935547 -1.63671875 766.04296875 C-0.15785605 762.84628078 1.48828362 761.25065746 4.14453125 758.9609375 C4.93859375 758.26355469 5.73265625 757.56617188 6.55078125 756.84765625 C8.64453125 755.2734375 8.64453125 755.2734375 10.64453125 755.2734375 C10.89847656 754.69464844 11.15242188 754.11585938 11.4140625 753.51953125 C12.77763319 751.03047364 14.3509179 749.36375686 16.33203125 747.3359375 C31.13647254 730.8387924 32.71337819 711.39603347 31.82910156 690.25927734 C31.42512391 683.72403032 30.35134747 677.60316891 28.64453125 671.2734375 C28.31582031 670.05140625 27.98710938 668.829375 27.6484375 667.5703125 C23.79280818 654.8160508 17.77254734 642.19568794 9.0546875 632.03515625 C7.64453125 630.2734375 7.64453125 630.2734375 6.703125 628.16796875 C5.3627543 625.76915033 4.12236675 625.3690476 1.64453125 624.2734375 C0.46154174 623.35662063 -0.70445554 622.41759102 -1.85546875 621.4609375 C-6.85896444 617.60407624 -12.48289105 615.48544177 -18.35546875 613.2734375 C-18.35546875 612.2834375 -18.35546875 611.2934375 -18.35546875 610.2734375 C-19.05671875 610.0465625 -19.75796875 609.8196875 -20.48046875 609.5859375 C-27.11446129 606.55737569 -30.38975004 602.53865061 -33.375 596.0078125 C-36.51274275 587.25713549 -35.57322959 578.88675928 -32.35546875 570.2734375 C-30.88432462 567.54328914 -29.4335259 565.61791223 -27.35546875 563.2734375 C-26.69546875 563.2734375 -26.03546875 563.2734375 -25.35546875 563.2734375 C-25.35546875 562.6134375 -25.35546875 561.9534375 -25.35546875 561.2734375 C-17.81202344 554.31025721 -8.61054601 553.2056861 1.31420898 553.06811523 C2.59500839 553.04817001 3.8758078 553.02822479 5.19541931 553.00767517 C6.57298669 552.99069737 7.95055529 552.97381833 9.328125 552.95703125 C10.75302185 552.93643062 12.17791302 552.9154334 13.60279846 552.89405823 C17.33286911 552.83915829 21.06299194 552.78960912 24.79315186 552.74121094 C28.60759056 552.69075997 32.42195453 552.63519772 36.23632812 552.58007812 C43.70566568 552.47288961 51.17506585 552.37135928 58.64453125 552.2734375 C58.73156948 548.83609687 58.78493397 545.39903913 58.83203125 541.9609375 C58.85716797 540.98447266 58.88230469 540.00800781 58.90820312 539.00195312 C58.91787109 538.06416016 58.92753906 537.12636719 58.9375 536.16015625 C58.95321045 535.29608154 58.9689209 534.43200684 58.98510742 533.54174805 C58.55542301 530.67995746 57.94617359 529.9991001 55.64453125 528.2734375 C52.93183922 527.81533367 52.93183922 527.81533367 49.79597569 527.88143921 C48.56776429 527.87034937 47.33955289 527.85925953 46.07412297 527.84783363 C44.70383879 527.85060731 43.33355514 527.85365037 41.96327209 527.85693359 C40.51317358 527.84951609 39.06308131 527.84077907 37.61299795 527.83083153 C33.61815599 527.8072145 29.62347086 527.80222496 25.62856758 527.8001318 C21.32360034 527.79460865 17.01872175 527.7718508 12.71380615 527.7510376 C5.24920206 527.7171938 -2.21537469 527.69396206 -9.68003654 527.67755127 C-20.48583143 527.65352081 -31.29148473 527.61027317 -42.09719426 527.56173682 C-59.64492207 527.48316655 -77.19267228 527.41576536 -94.74047852 527.35742188 C-95.7913213 527.35392408 -96.84216409 527.35042629 -97.92485059 527.3468225 C-105.38088905 527.32207591 -112.83692877 527.29772128 -120.29296875 527.2734375 C-128.79435319 527.24573365 -137.2957369 527.21782416 -145.79711914 527.18945312 C-146.84395557 527.18596351 -147.890792 527.1824739 -148.96935075 527.17887855 C-166.43954283 527.12028138 -183.90967028 527.05011204 -201.37978464 526.97175789 C-212.15359042 526.92400009 -222.9273363 526.88669326 -233.70122225 526.86293554 C-241.0908416 526.84598201 -248.48037485 526.81858465 -255.86992811 526.78306246 C-260.13059655 526.76295757 -264.39113898 526.74767808 -268.65185738 526.74542999 C-272.55873824 526.74329262 -276.46532092 526.72738181 -280.37211043 526.70090795 C-281.77934144 526.6937608 -283.18660872 526.69153592 -284.5938537 526.69496036 C-296.78916383 526.72000126 -308.94156746 525.82813352 -318.35546875 517.2734375 C-324.85705872 509.83082793 -328.04897314 500.72515516 -327.70703125 490.85546875 C-326.69363447 483.41263238 -323.94339695 476.38579734 -318.35546875 471.2734375 C-308.13427426 464.50821308 -298.80339635 462.99179408 -286.74536133 462.86157227 C-285.60758177 462.84232885 -284.46980221 462.82308544 -283.29754448 462.8032589 C-279.51093778 462.74278639 -275.72432443 462.69697501 -271.9375 462.65234375 C-270.59991236 462.63398328 -269.26233005 462.61523143 -267.92475319 462.59610176 C-235.33906447 462.13210074 -202.75118432 462.15408837 -170.16295826 462.20140898 C-162.07960941 462.21293952 -153.99625927 462.2181711 -145.91290414 462.22311389 C-129.39374933 462.23334393 -112.87461126 462.25072544 -96.35546875 462.2734375 C-96.33335831 461.56095352 -96.31124786 460.84846954 -96.28846741 460.11439514 C-96.18327838 456.84554467 -96.0682722 453.57710799 -95.953125 450.30859375 C-95.91852173 449.18795532 -95.88391846 448.06731689 -95.8482666 446.91271973 C-95.07674622 425.7327405 -87.84043613 407.7777663 -72.35546875 393.2734375 C-58.06260596 380.36375498 -39.11558937 376.22359828 -20.41015625 376.02734375 C-18.25911074 375.99439034 -16.10806918 375.96117896 -13.95703125 375.92773438 C-10.60028912 375.88052866 -7.24356119 375.8360914 -3.88671875 375.79663086 C20.79962284 376.57256563 20.79962284 376.57256563 42.48828125 366.63671875 C48.93985626 359.60007444 50.71959254 351.57937145 50.83398438 342.25 C50.8507019 341.08017578 50.86741943 339.91035156 50.88464355 338.70507812 C50.89821899 337.44888672 50.91179443 336.19269531 50.92578125 334.8984375 C50.95393712 332.8864939 50.98209715 330.87455034 51.01047516 328.86260986 C51.05895504 325.33293298 51.1013326 321.80318222 51.14453125 318.2734375 C51.20461126 313.43636316 51.26797655 308.59935375 51.33641052 303.76239014 C51.3620675 301.86327857 51.38335181 299.96410943 51.40441895 298.06494141 C51.51094506 290.28930508 51.79147582 282.53497562 52.15637207 274.76757812 C52.2266329 273.2484079 52.2266329 273.2484079 52.29831314 271.69854736 C52.41290083 269.22347153 52.52832511 266.74843778 52.64453125 264.2734375 C51.59815585 264.27620288 50.55178045 264.27896826 49.47369671 264.28181744 C23.99195775 264.34846928 -1.48976987 264.39774004 -26.97157764 264.42887402 C-39.2944785 264.44433105 -51.6173217 264.46539838 -63.94018555 264.49975586 C-74.68303726 264.52969377 -85.42584722 264.54902096 -96.1687395 264.55570298 C-101.85497025 264.55960778 -107.54108154 264.56876048 -113.22727394 264.59062767 C-118.58455636 264.61106214 -123.94167065 264.61725722 -129.29898834 264.61276054 C-131.26008456 264.61358263 -133.22118668 264.61950661 -135.18224907 264.63105392 C-148.85066817 264.70755747 -161.44278811 264.67578612 -172.35546875 255.2734375 C-178.3507339 249.05515373 -181.40644608 241.96304117 -181.73046875 233.3359375 C-181.40088223 224.47829983 -178.77050689 216.55370593 -172.35546875 210.2734375 C-163.50132663 203.49730833 -154.53081217 202.00002039 -143.625 201.89453125 C-142.19710899 201.86965134 -142.19710899 201.86965134 -140.7403717 201.8442688 C-137.54964361 201.79108602 -134.35888394 201.75119817 -131.16796875 201.7109375 C-128.88361355 201.67453846 -126.59927123 201.63732322 -124.31494141 201.59936523 C-111.34242371 201.39206363 -98.36931864 201.24886949 -85.39585876 201.11637878 C-81.90736861 201.08069729 -78.41889697 201.04368008 -74.93043518 201.00532532 C-74.06393939 200.99579928 -73.1974436 200.98627325 -72.30469036 200.97645855 C-70.55404421 200.95716123 -68.80339888 200.9377883 -67.0527544 200.91833973 C-62.7369122 200.87111978 -58.42110157 200.82809071 -54.10513306 200.79415894 C-4.39148044 201.83866267 -4.39148044 201.83866267 38.5 179.99609375 C50.5931566 164.64285122 54.20469518 145.35902009 52.64453125 126.2734375 C50.97336025 112.87644681 45.98132569 96.27986945 35.96875 86.6640625 C34.64453125 85.2734375 34.64453125 85.2734375 34.64453125 83.2734375 C33.75701172 82.86158203 33.75701172 82.86158203 32.8515625 82.44140625 C30.73789238 81.32284454 29.15704105 80.11726756 27.33203125 78.5859375 C23.50161566 75.66102353 19.48698081 73.56374901 15.14453125 71.5234375 C14.21966919 71.08318237 14.21966919 71.08318237 13.27612305 70.6340332 C3.95698037 66.37838565 -4.70265315 65.8393667 -14.85546875 65.8359375 C-15.90927734 65.83184372 -15.90927734 65.83184372 -16.984375 65.82766724 C-31.24383048 65.81949643 -45.20716754 67.41176999 -59.31054688 69.40649414 C-67.1080872 70.50836598 -74.86359055 71.50266713 -82.7265625 72 C-83.4218103 72.04680405 -84.11705811 72.09360809 -84.83337402 72.14183044 C-93.15370117 72.59092004 -99.06608615 70.24066665 -105.5 65.078125 C-111.88705058 58.86587791 -115.53764876 51.4691206 -115.73535156 42.51318359 C-115.73374023 41.83594238 -115.73212891 41.15870117 -115.73046875 40.4609375 C-115.72885742 39.75533691 -115.72724609 39.04973633 -115.72558594 38.32275391 C-115.58808912 32.46026706 -114.40999396 28.21582898 -111.35546875 23.2734375 C-110.77796875 22.2009375 -110.20046875 21.1284375 -109.60546875 20.0234375 C-96.33028653 3.79821479 -63.66873365 4.14648491 -44.73046875 2.22436523 C-41.27356265 1.88825014 -37.81533004 1.57755753 -34.35546875 1.2734375 C-33.35856018 1.18465836 -32.36165161 1.09587921 -31.33453369 1.00440979 C-20.89014366 0.16502144 -10.47311966 0.05783727 0 0 Z " fill="#272044" transform="translate(658.35546875,121.7265625)"/>
<path d="M0 0 C2.74620868 -0.00786482 5.49233931 -0.02128098 8.23851776 -0.03624344 C12.44286861 -0.05827605 16.64695087 -0.06527212 20.85135269 -0.05897141 C22.33901357 -0.05877722 23.82668502 -0.0633734 25.31431198 -0.07342148 C38.69802183 -0.15614583 38.69802183 -0.15614583 44.75591278 3.30460739 C45.05001699 13.75230914 44.29929029 23.60175741 42.56841278 33.92960739 C42.45443146 34.62525803 42.34045013 35.32090866 42.22301483 36.03763962 C41.44056601 40.80083251 40.6116552 45.5540373 39.75591278 50.30460739 C39.5743161 51.31426559 39.39271942 52.3239238 39.20561981 53.3641777 C33.00085121 86.30130672 17.68795421 116.07229558 -5.24408722 140.30460739 C-6.03557159 141.14894333 -6.82705597 141.99327927 -7.64252472 142.86320114 C-18.59957884 154.21775091 -31.92033519 162.7387126 -46.24408722 169.30460739 C-47.23408722 169.30460739 -48.22408722 169.30460739 -49.24408722 169.30460739 C-51.06546724 161.58506099 -51.68085414 154.02087455 -52.11908722 146.11710739 C-52.7861193 136.01905845 -53.82657511 126.88484624 -57.24408722 117.30460739 C-57.46081085 116.68730759 -57.67753448 116.07000778 -57.9008255 115.43400192 C-62.39674495 102.82318617 -68.61651515 91.57032606 -77.24408722 81.30460739 C-78.19154816 80.12124802 -78.19154816 80.12124802 -79.15814972 78.91398239 C-90.87494713 64.95914502 -109.45667081 51.97262311 -127.86908722 50.02726364 C-136.07081739 49.7146977 -141.66094127 51.74324643 -147.99408722 56.92960739 C-154.17104462 62.85052511 -156.3325309 68.02478252 -156.76117706 76.49479294 C-156.96002342 86.33554926 -154.9928681 93.44513141 -148.24408722 100.86710739 C-142.43575829 106.25601651 -135.48775776 110.48022466 -128.90814972 114.85929489 C-119.18650712 121.66060216 -113.27025944 130.89199905 -110.24408722 142.30460739 C-109.42052748 148.37233312 -109.60988802 154.50874569 -109.68549347 160.61710739 C-109.68975711 162.36100025 -109.69207366 164.10489884 -109.69255829 165.84879684 C-109.6986837 169.48309657 -109.72118513 173.11677031 -109.75702667 176.75089645 C-109.80229445 181.37349958 -109.8170562 185.99553896 -109.82076359 190.61834335 C-109.82522515 194.21323155 -109.84058638 197.80800543 -109.85964012 201.40284348 C-109.86842269 203.10581667 -109.8751999 204.8088016 -109.8798008 206.51179123 C-109.9573649 226.68578975 -111.87284114 242.0403202 -126.08393097 257.27726364 C-136.75934968 267.54642963 -152.07313013 271.81627579 -166.52494049 271.612957 C-168.15539822 271.60842231 -168.15539822 271.60842231 -169.81879449 271.60379601 C-173.42352183 271.59013859 -177.02769634 271.55482673 -180.63227081 271.51945114 C-183.21895605 271.50518811 -185.80564904 271.49227514 -188.39234734 271.48061752 C-193.8763863 271.45389932 -199.36026071 271.41640718 -204.84417725 271.37119675 C-212.35999457 271.30930762 -219.87582068 271.26480592 -227.39178775 271.22581971 C-242.99988476 271.14424706 -258.60772505 271.03364723 -274.21559743 270.91752356 C-281.97439755 270.85986414 -289.73321499 270.80470081 -297.49203365 270.74960101 C-311.31385634 270.65138353 -325.13566534 270.55136592 -338.95746613 270.4501152 C-352.3357143 270.35211778 -365.7139686 270.25503111 -379.09223175 270.15909958 C-379.92530053 270.15312559 -380.75836931 270.1471516 -381.6166826 270.14099658 C-385.79846194 270.11101415 -389.9802414 270.08104889 -394.16202092 270.05109215 C-428.52272914 269.8049226 -462.88341528 269.55578957 -497.24408722 269.30460739 C-496.49524221 264.44495219 -495.05151683 262.73198193 -491.30658722 259.49210739 C-490.41068878 258.70191208 -489.51479034 257.91171677 -488.59174347 257.09757614 C-486.24408722 255.30460739 -486.24408722 255.30460739 -484.24408722 255.30460739 C-483.86316925 254.4364238 -483.86316925 254.4364238 -483.47455597 253.55070114 C-482.11098528 251.06164353 -480.53770057 249.39492676 -478.55658722 247.36710739 C-463.75214593 230.86996229 -462.17524028 211.42720336 -463.05951691 190.29044724 C-463.46349456 183.75520021 -464.537271 177.6343388 -466.24408722 171.30460739 C-466.57279816 170.08257614 -466.90150909 168.86054489 -467.24018097 167.60148239 C-471.09581029 154.84722069 -477.11607112 142.22685783 -485.83393097 132.06632614 C-487.24408722 130.30460739 -487.24408722 130.30460739 -488.18549347 128.19913864 C-489.54188454 125.77164908 -490.73915615 125.46510867 -493.24408722 124.30460739 C-495.19098961 122.8226775 -497.10587807 121.2981316 -498.99408722 119.74210739 C-499.97893097 118.93644333 -500.96377472 118.13077927 -501.97846222 117.30070114 C-502.72611847 116.6419902 -503.47377472 115.98327927 -504.24408722 115.30460739 C-504.24408722 114.97460739 -504.24408722 114.64460739 -504.24408722 114.30460739 C-503.25293632 114.30129725 -502.26178541 114.2979871 -501.24059963 114.29457664 C-477.07593031 114.21342812 -452.91132342 114.12106595 -428.74674129 114.01708031 C-417.06072982 113.9670499 -405.37472502 113.92060617 -393.6886673 113.88273239 C-383.49802104 113.84969591 -373.30742813 113.80980103 -363.1168409 113.76181734 C-357.72564418 113.7366678 -352.33448231 113.71485299 -346.94324303 113.70126343 C-341.85842765 113.68833758 -336.77373252 113.66617213 -331.68898392 113.6372242 C-329.83279415 113.62822999 -327.97658507 113.62247752 -326.12037468 113.62039375 C-302.61248309 113.58930548 -277.3659978 110.96376286 -259.24408722 94.30460739 C-258.39846222 93.56210739 -257.55283722 92.81960739 -256.68158722 92.05460739 C-244.60932094 78.43461467 -237.17628654 62.69543872 -237.06830597 44.37882614 C-237.04510536 42.84430725 -237.02098793 41.309802 -236.99604034 39.77531052 C-236.96102909 37.38597593 -236.93161559 34.99714522 -236.91815948 32.60758591 C-236.78547657 12.84599674 -236.78547657 12.84599674 -229.74408722 5.80460739 C-226.26783467 3.71885586 -223.1779921 3.19840543 -219.16898346 3.00701523 C-218.35613199 2.96784202 -217.54328053 2.9286688 -216.7057972 2.88830853 C-215.81270536 2.85109975 -214.91961353 2.81389097 -213.99945831 2.77555466 C-213.03839361 2.73409348 -212.07732891 2.69263231 -211.08714104 2.64991474 C-197.86841994 2.12112647 -184.64013901 1.97307341 -171.41302919 1.79941845 C-168.33710644 1.75853949 -165.26121992 1.71520549 -162.18532979 1.67195141 C-152.26563317 1.53264852 -142.34582711 1.40246799 -132.42597198 1.27501631 C-129.86802676 1.24209374 -127.31008494 1.20891711 -124.75214386 1.17567444 C-41.02585289 0.08903078 -41.02585289 0.08903078 0 0 Z " fill="#70ABDE" transform="translate(1153.2440872192383,621.6953926086426)"/>
<path d="M0 0 C1.14372574 0.00091644 2.28745148 0.00183289 3.46583557 0.0027771 C5.87545949 0.00879708 8.28507649 0.02449444 10.69458008 0.04931641 C14.36372768 0.08578663 18.03186196 0.09033552 21.70117188 0.08984375 C24.05078989 0.09967785 26.40040113 0.11133612 28.75 0.125 C29.8377623 0.12722565 30.9255246 0.12945129 32.04624939 0.13174438 C48.34793222 0.33279305 56.78576953 6.43262752 68.75390625 16.73828125 C71.412989 19.02392394 74.12424076 21.22823229 76.87890625 23.3984375 C87.25430268 31.68215401 96.98220943 40.3228536 106.37890625 49.7109375 C107.21921387 50.55043945 108.05952148 51.38994141 108.92529297 52.25488281 C113.79378249 57.16704027 118.4655718 62.18901152 122.94140625 67.4609375 C123.42279053 68.02586914 123.9041748 68.59080078 124.40014648 69.17285156 C125.75165152 70.7652118 127.09727821 72.3623482 128.44140625 73.9609375 C133.23289914 79.63850606 138.05274155 85.28340633 143.05078125 90.78125 C147.72945654 95.92779282 152.23518176 101.16575063 156.58984375 106.58984375 C158.27064333 108.64198277 159.96743266 110.63516687 161.73046875 112.61328125 C162.42378296 113.40436279 162.42378296 113.40436279 163.13110352 114.21142578 C164.43480367 115.69481074 165.75219751 117.16612775 167.0703125 118.63671875 C169.26980523 121.95662114 169.53493544 123.55530348 168.94140625 127.4609375 C165.37681007 134.50690971 157.6059617 138.56415372 151.17578125 142.6796875 C147.39173029 145.11963788 143.78381476 147.75380402 140.17407227 150.44287109 C121.85089739 164.05905019 103.89052422 170.57135135 81.02734375 170.65039062 C79.04594357 170.66312333 77.0645434 170.67585609 75.08314323 170.688591 C72.96131785 170.70129903 70.83949272 170.71164042 68.71765137 170.72129822 C64.2664838 170.74167699 59.81537871 170.7693174 55.36425781 170.79797363 C46.69196589 170.85286314 38.01964347 170.90098809 29.3473053 170.94791412 C18.36792058 171.00734665 7.38855301 171.06827422 -3.59076881 171.13848639 C-7.27854188 171.16185496 -10.96630604 171.18344647 -14.65411377 171.20057678 C-28.05790547 171.26327298 -41.45985196 171.34038656 -54.85546875 171.85351562 C-56.18025238 171.89819599 -56.18025238 171.89819599 -57.53179932 171.94377899 C-68.68960949 172.44057999 -78.42814679 173.88532294 -87.05859375 181.4609375 C-92.84312157 188.26166616 -93.90290044 195.1139583 -93.51171875 203.87109375 C-92.48250093 212.02498322 -89.33985541 219.02104577 -83.05859375 224.4609375 C-73.61542993 230.82958287 -62.82504138 230.75360955 -51.82836914 230.71972656 C-50.40798769 230.72244156 -48.98760764 230.72600534 -47.56723022 230.73034668 C-43.72986462 230.73941992 -39.89260728 230.73594545 -36.05523992 230.72958851 C-32.01578197 230.72449327 -27.97633274 230.72923052 -23.93687439 230.73236084 C-17.14564367 230.73599402 -10.35445651 230.73122235 -3.56323242 230.72167969 C4.2431687 230.71083588 12.049465 230.71429357 19.85586351 230.7253325 C26.59258532 230.73447133 33.32927593 230.73565755 40.06600195 230.73045516 C44.07386933 230.72736631 48.08168785 230.72683889 52.08955193 230.73352814 C107.8251369 230.81361019 157.17710638 217.64003641 199.94140625 180.4609375 C200.60140625 179.8009375 201.26140625 179.1409375 201.94140625 178.4609375 C206.93101591 177.6429687 206.93101591 177.6429687 209.94140625 178.4609375 C214.83422256 185.11823635 218.36331459 192.7839338 222.14233398 200.11987305 C223.23374222 202.23437162 224.33623085 204.34281897 225.43945312 206.45117188 C233.85101601 222.65458387 240.52319238 239.42698354 246.52636719 256.65454102 C247.45813944 259.32132889 248.40645034 261.98188529 249.35546875 264.64257812 C249.95802501 266.35902647 250.55962513 268.07581083 251.16015625 269.79296875 C251.44129272 270.57734818 251.7224292 271.3617276 252.01208496 272.1698761 C253.44781712 276.33965298 254.63864858 280.00557507 253.94140625 284.4609375 C251.71148397 287.46343247 250.49644751 288.3680333 246.76890564 288.99195862 C245.48125809 289.00693893 244.19361053 289.02191925 242.86694336 289.03735352 C241.76380263 289.05830865 241.76380263 289.05830865 240.63837624 289.07968712 C238.10257589 289.12277896 235.56736154 289.13716997 233.03125 289.15234375 C231.15345405 289.17821311 229.27568163 289.20583659 227.39793396 289.23500061 C223.07188878 289.29785199 218.74592777 289.34696054 214.4196167 289.38751221 C206.91648271 289.45826876 199.41380547 289.55439596 191.91100049 289.65310359 C178.0234927 289.83509362 164.13582761 290.00244372 150.24804688 290.16210938 C149.39806413 290.17191102 148.54808138 290.18171266 147.67234159 290.19181132 C138.16579143 290.3013318 128.65921665 290.40802583 119.15258789 290.51049805 C24.52487998 284.18710438 24.52487998 284.18710438 -58.05859375 316.4609375 C-59.10853516 317.44707031 -59.10853516 317.44707031 -60.1796875 318.453125 C-75.69254396 334.55332792 -75.50682489 355.94523834 -75.49438477 376.75756836 C-75.49796074 379.53276519 -75.52528315 382.3070057 -75.5546875 385.08203125 C-75.54650497 385.92068222 -75.53832245 386.75933319 -75.52989197 387.62339783 C-75.6023163 393.36185416 -76.74114607 396.74455212 -80.05859375 401.4609375 C-90.3941147 406.62869797 -106.93970936 403.76268817 -118.28295898 403.81103516 C-121.10457025 403.82447725 -123.92547581 403.85254956 -126.74682617 403.89306641 C-130.8287369 403.95163877 -134.90987934 403.96964932 -138.9921875 403.984375 C-140.89054604 404.01837906 -140.89054604 404.01837906 -142.82725525 404.05307007 C-143.99599686 404.05022003 -145.16473846 404.04737 -146.36889648 404.04443359 C-147.39796616 404.05252045 -148.42703583 404.0606073 -149.48728943 404.06893921 C-152.05859375 403.4609375 -152.05859375 403.4609375 -153.87492371 401.12391663 C-155.29821656 397.92184254 -155.69715392 395.1697896 -156.05078125 391.68359375 C-156.20030657 390.3508874 -156.35005375 389.01820593 -156.5 387.68554688 C-156.71799843 385.61990251 -156.93055083 383.55387034 -157.13720703 381.48706055 C-159.08846165 362.40120715 -165.85045236 342.18207458 -181.05859375 329.4609375 C-197.56730012 318.67217458 -213.49951955 317.17586626 -232.71924019 317.12541199 C-235.80895506 317.11702752 -238.89838763 317.096443 -241.98802185 317.07287598 C-249.64757259 317.01686619 -257.30719118 316.98116248 -264.96685791 316.94525146 C-271.47138373 316.91401796 -277.97576657 316.87488161 -284.48017693 316.82499695 C-287.52249436 316.8049511 -290.5647013 316.79661901 -293.60707092 316.78869629 C-295.46534636 316.77572932 -297.32361806 316.76220981 -299.18188477 316.74804688 C-300.44813187 316.74951973 -300.44813187 316.74951973 -301.73995972 316.75102234 C-309.20881716 316.67156281 -309.20881716 316.67156281 -312.05859375 314.4609375 C-313.38414594 310.48428093 -313.36033422 306.81424084 -313.43359375 302.6484375 C-313.47097656 301.85373047 -313.50835938 301.05902344 -313.546875 300.24023438 C-313.60987146 296.00897214 -313.38389779 293.30036145 -310.66015625 289.94921875 C-303.25386533 282.86542398 -287.19561003 285.28337617 -277.24304199 285.07333374 C-245.09607344 284.35947089 -214.36061256 282.38068018 -189.53125 259.0859375 C-170.0727539 238.42857671 -163.78260215 213.82597812 -163.7536335 186.09666252 C-163.74992383 183.24216819 -163.73308035 180.38800722 -163.71287537 177.53358459 C-163.65785321 169.42878388 -163.62663891 161.32393933 -163.60229492 153.21899414 C-163.58643985 148.23723092 -163.55626576 143.25571534 -163.51753044 138.27408028 C-163.50588688 136.38226504 -163.49995015 134.49040568 -163.49984932 132.59855461 C-163.49965767 129.96379385 -163.4814285 127.32972223 -163.45922852 124.69506836 C-163.46380569 123.9163588 -163.46838287 123.13764923 -163.47309875 122.33534241 C-163.43357114 119.39061768 -163.28711917 116.95174885 -162.03452301 114.26150799 C-159.03672169 111.52975402 -155.91263948 111.90999477 -152.05845642 111.95541382 C-150.8217533 111.94627864 -150.8217533 111.94627864 -149.56006628 111.93695891 C-146.78707496 111.92129673 -144.01493975 111.93417222 -141.24194336 111.94677734 C-139.25774592 111.94131921 -137.27355269 111.93407936 -135.28936768 111.92518616 C-131.01026696 111.90981872 -126.73140613 111.90705977 -122.45228386 111.91395187 C-115.68200657 111.92471915 -108.91198064 111.90737703 -102.14173889 111.88613892 C-91.42624379 111.8558396 -80.71082281 111.8441811 -69.99528843 111.84056246 C-50.82720644 111.83392681 -31.65917648 111.80484266 -12.49115759 111.7554661 C-5.7659623 111.73899444 0.95912519 111.73354659 7.68433869 111.73705649 C11.87814875 111.73749484 16.07191847 111.72990912 20.26571655 111.72038078 C22.20464858 111.71770725 24.14358888 111.71843392 26.08251762 111.72289085 C42.48792447 111.79380051 42.48792447 111.79380051 58.25390625 107.5859375 C59.03378906 107.27914062 59.81367187 106.97234375 60.6171875 106.65625 C68.01610757 102.8510911 71.27835572 97.14247599 73.94140625 89.4609375 C75.61529993 79.59494164 73.59299799 71.65761691 67.94140625 63.4609375 C61.85802123 56.29984325 54.02805852 54.20566949 44.94140625 53.4609375 C40.55419556 53.32012029 36.16818419 53.28329967 31.77913475 53.26170731 C29.57225856 53.24979973 27.36556784 53.23032501 25.1587677 53.20858765 C18.89049393 53.14731881 12.62225074 53.09276323 6.35375977 53.05957031 C2.50589348 53.03865642 -1.34161413 53.00340209 -5.18927574 52.95881271 C-6.652074 52.9446504 -8.11493547 52.93592974 -9.57779884 52.93275833 C-11.61680342 52.92786342 -13.65573133 52.90312029 -15.69458008 52.87744141 C-16.85403641 52.86935455 -18.01349274 52.8612677 -19.20808411 52.85293579 C-22.05859375 52.4609375 -22.05859375 52.4609375 -23.93009949 51.16726685 C-25.92453321 48.15160172 -25.5264553 44.6028392 -25.52734375 41.1015625 C-25.53495728 40.27895935 -25.5425708 39.4563562 -25.55041504 38.60882568 C-25.56122018 36.86717765 -25.56406745 35.1254648 -25.55957031 33.38378906 C-25.55860214 30.73390668 -25.60012688 28.08696103 -25.64453125 25.4375 C-25.64974178 23.74219351 -25.65242639 22.046877 -25.65234375 20.3515625 C-25.66873901 19.56589905 -25.68513428 18.7802356 -25.70202637 17.97076416 C-25.64142267 13.0824592 -24.77579733 9.78686361 -21.63514709 5.97079468 C-15.32874942 -0.06881053 -8.35333439 -0.11015556 0 0 Z " fill="#6FA8DF" transform="translate(935.05859375,272.5390625)"/>
<path d="M0 0 C1.63492774 -0.00346062 3.26985315 -0.0082279 4.90477371 -0.01418173 C9.37796136 -0.0266658 13.85095616 -0.02053318 18.32414436 -0.01122308 C23.15584726 -0.00442229 27.9875175 -0.01491892 32.81921387 -0.02316284 C42.27682783 -0.03649136 51.7343703 -0.03362635 61.19198704 -0.02492492 C68.87950285 -0.01814532 76.56699865 -0.01723285 84.2545166 -0.02049637 C85.34931752 -0.02095607 86.44411845 -0.02141577 87.57209516 -0.0218894 C89.79627451 -0.02284859 92.02045386 -0.02382123 94.2446332 -0.02480717 C115.09285031 -0.03335849 135.94102783 -0.02353098 156.78923845 -0.00740607 C174.67168661 0.00599687 192.55407634 0.0036687 210.43652344 -0.01016235 C231.21096636 -0.02622272 251.98537459 -0.03253454 272.75982285 -0.02332556 C274.97574615 -0.02236993 277.19166946 -0.02142682 279.40759277 -0.02049637 C281.04293877 -0.01980213 281.04293877 -0.01980213 282.71132207 -0.01909386 C290.38816362 -0.01650535 298.06498315 -0.02087199 305.74182129 -0.02793503 C315.09937897 -0.03635528 324.45686116 -0.0340588 333.81441021 -0.0180928 C338.58728883 -0.0102172 343.36004167 -0.0071064 348.13291931 -0.01704025 C352.50506405 -0.02600232 356.87696682 -0.02102941 361.24908972 -0.0051076 C362.82769072 -0.0017662 364.40631232 -0.00343939 365.9849 -0.01073496 C379.39151232 -0.06792482 389.42155002 1.29061533 399.51855469 10.69345093 C405.96216323 17.3361997 407.21717461 25.48253697 407.10839844 34.47470093 C406.22467182 43.73516016 401.02427476 51.50222236 394.33105469 57.69345093 C383.77525404 62.78285481 371.94768846 62.8446673 360.46240234 62.90512085 C358.87413563 62.9240515 357.28588345 62.9442353 355.69764709 62.96556091 C351.43214625 63.01935151 347.16666021 63.05585131 342.90095568 63.08899093 C338.42591073 63.12678301 333.95106111 63.18083255 329.47616577 63.233078 C321.02293165 63.32934185 312.56962336 63.41121274 304.11619031 63.48777324 C294.48351744 63.57572511 284.85104125 63.6799348 275.21854711 63.78543699 C255.42288115 64.00189328 235.62705838 64.19817083 215.83105469 64.38095093 C215.07909963 67.24674664 214.68951912 69.80153299 214.62011719 72.76766968 C213.8234191 98.63330903 209.6271772 121.22896379 190.83105469 140.38095093 C190.21617187 141.02032593 189.60128906 141.65970093 188.96777344 142.31845093 C183.230941 147.82187905 176.20691164 151.51768834 168.83105469 154.38095093 C167.55038872 154.88583794 167.55038872 154.88583794 166.24385071 155.40092468 C154.28107696 159.44985355 142.28129412 158.96154197 129.78808594 158.91220093 C127.36821843 158.91490069 124.94835199 158.91878713 122.52848816 158.92379761 C117.47957945 158.92966641 112.43095547 158.92121197 107.38208008 158.9024353 C100.93308596 158.87961097 94.4847566 158.89280827 88.03578663 158.91672516 C83.04700263 158.9312225 78.05837466 158.92655966 73.0695858 158.91621399 C70.69229744 158.91355951 68.31499457 158.91677106 65.93772316 158.9261322 C62.60987748 158.93636671 59.28308976 158.92070111 55.95532227 158.89852905 C54.98828369 158.90662598 54.02124512 158.9147229 53.02490234 158.92306519 C44.98690278 158.82456622 37.60203909 156.98968038 30.92871094 152.37313843 C23.03722703 144.16357167 19.71045277 135.82090411 19.83105469 124.38095093 C20.51407367 116.35911101 25.2793604 109.61281693 30.89355469 104.06845093 C40.04557649 97.0464829 51.9738644 96.77583977 63.01855469 96.69345093 C64.52143561 96.6671786 66.02428465 96.63903028 67.52709961 96.60922241 C71.91565335 96.5275621 76.30424316 96.47085146 80.6932373 96.41879272 C90.69506625 96.29817156 100.69651351 96.15122494 110.69790649 95.99920654 C114.60380731 95.94401259 118.50969947 95.90172491 122.41577148 95.86068726 C124.85238185 95.82748186 127.28898697 95.79388899 129.72558594 95.75985718 C130.84397858 95.75149841 131.96237122 95.74313965 133.11465454 95.73452759 C141.18993983 95.65715084 141.18993983 95.65715084 148.83105469 93.38095093 C150.8340376 89.614526 151.06794226 86.42503918 151.02636719 82.20516968 C151.01992188 81.04823608 151.01347656 79.89130249 151.00683594 78.6993103 C150.99007812 77.50112671 150.97332031 76.30294312 150.95605469 75.06845093 C150.94703125 73.8509314 150.93800781 72.63341187 150.92871094 71.3789978 C150.90518506 68.37944818 150.87231122 65.38030049 150.83105469 62.38095093 C149.59529001 62.385099 149.59529001 62.385099 148.33456039 62.38933086 C128.2518193 62.45569869 108.16909721 62.50528397 88.08626938 62.53638744 C78.37420452 62.55183018 68.66221305 62.57286992 58.95019531 62.60726929 C50.48128147 62.63725126 42.0124208 62.65654477 33.54345536 62.66321641 C29.06275487 62.66711381 24.58220644 62.67621872 20.10155487 62.6981411 C15.87610737 62.71864552 11.65087323 62.7247568 7.42538071 62.72027397 C5.88235435 62.72109298 4.33932016 62.72697499 2.79633713 62.73856735 C-10.97773173 62.83689345 -22.31057282 61.74987259 -32.79394531 52.19345093 C-38.77264275 45.95020936 -40.8275236 39.04228957 -41.26269531 30.50204468 C-40.99216327 21.49558225 -38.54673456 13.85276164 -32.16894531 7.38095093 C-22.93186125 -0.38659703 -11.44297837 -0.05288463 0 0 Z " fill="#C03C4B" transform="translate(226.1689453125,217.61904907226563)"/>
<path d="M0 0 C2.10835887 -0.00218987 4.21619574 -0.02042371 6.32446289 -0.03930664 C19.41133886 -0.09598557 30.65228879 0.62054207 40.80688477 9.63061523 C46.76442545 16.13945073 48.56472406 25.40881067 48.38500977 33.98608398 C47.58167879 42.51958095 44.17679829 49.11196346 38.17797852 55.18530273 C31.52371266 60.48768614 23.07272315 61.40746704 14.86547852 61.89624023 C13.27821129 62.00782684 11.69097256 62.11981948 10.10375977 62.23217773 C7.65403254 62.39760122 5.20419738 62.55866571 2.75366211 62.71166992 C-11.12315327 63.59532841 -25.03154389 65.06249195 -37.50952148 71.68530273 C-38.60651367 72.25249023 -39.70350586 72.81967773 -40.83374023 73.40405273 C-51.18391023 79.57356583 -56.78140399 89.7104096 -59.82202148 101.18530273 C-63.79822427 120.24835494 -63.05549915 138.76774493 -52.70092773 155.53686523 C-48.81935438 161.00818901 -45.30272339 164.938838 -39.44702148 168.31030273 C-38.36678711 168.95225586 -37.28655273 169.59420898 -36.17358398 170.25561523 C-24.01406138 176.16628995 -11.61985543 176.7709143 1.60693359 176.71533203 C3.41024515 176.72245083 5.21355048 176.73132332 7.0168457 176.74179077 C11.89068091 176.76526891 16.76424673 176.764677 21.6381247 176.75987601 C26.83120183 176.75927423 32.02417897 176.78212884 37.21720886 176.80244446 C47.11940234 176.8378383 57.02152301 176.85385155 66.92377251 176.86221963 C78.97925087 176.87301896 91.03465356 176.90401752 103.09008789 176.93725586 C104.69244691 176.94157918 104.69244691 176.94157918 106.32717681 176.94598985 C129.29919548 177.00797257 152.27117949 177.07648268 175.24308109 177.17314816 C178.15344371 177.18520113 181.06380851 177.19650556 183.9741745 177.20771027 C194.6641578 177.25025167 205.35360502 177.31523859 216.04321861 177.41419411 C219.2266766 177.44297321 222.409979 177.4627388 225.59354591 177.47406578 C229.24934668 177.48739689 232.90450498 177.51927268 236.56002831 177.56591773 C238.48837748 177.58604852 240.41689607 177.58726571 242.34535027 177.58763313 C251.06428934 177.72854613 258.16193406 179.13435423 265.20141602 184.48217773 C272.86960243 192.48154828 277.6043486 199.50755108 277.38891602 210.94702148 C276.33207449 222.16128434 270.46847701 229.32185175 262.49829102 236.73999023 C256.04046144 240.76254401 248.48528224 240.47349868 241.13824463 240.44599915 C240.04704496 240.44982469 238.95584529 240.45365024 237.83157897 240.45759171 C234.18560284 240.46788641 230.53978524 240.4639361 226.89379883 240.45996094 C224.27485509 240.46430961 221.65591262 240.46949327 219.03697205 240.47544861 C212.66522251 240.4881799 206.29351516 240.4899909 199.92175505 240.48764835 C194.73475567 240.48586168 189.54776904 240.48762232 184.36077118 240.49187279 C183.62105738 240.49246798 182.88134359 240.49306317 182.11921422 240.49367639 C180.61610812 240.49488824 179.11300202 240.49610237 177.60989591 240.49731877 C163.51848943 240.50819026 149.42710688 240.50603487 135.33569905 240.49993392 C122.4845342 240.4947767 109.63344543 240.50598924 96.78229561 240.52503214 C83.55627347 240.54447848 70.33028718 240.55265395 57.10425067 240.54890889 C49.69139528 240.54700562 42.27860444 240.54939744 34.8657608 240.56362343 C28.54788191 240.57562588 22.2301072 240.57684486 15.91222665 240.56483326 C12.69754294 240.55900319 9.48308513 240.55935158 6.26840782 240.56983566 C-31.1931417 240.68309956 -64.48952144 233.56047114 -92.00952148 206.56030273 C-116.30844988 181.99871052 -126.05567863 151.60079465 -126.14331055 117.5168457 C-125.80337055 84.77694877 -113.24632953 56.64703429 -90.82202148 33.18530273 C-90.13881836 32.42733398 -89.45561523 31.66936523 -88.75170898 30.88842773 C-72.0596966 13.02612666 -47.53463394 4.35227637 -23.82202148 1.18530273 C-22.74513062 1.04064575 -22.74513062 1.04064575 -21.64648438 0.89306641 C-14.44609074 0.04945221 -7.24092967 -0.00083972 0 0 Z " fill="#C03C4C" transform="translate(329.822021484375,496.814697265625)"/>
<path d="M0 0 C1.9575247 -0.00345988 3.91504746 -0.00822665 5.87256616 -0.01418173 C11.23280654 -0.02667588 16.59288616 -0.02052852 21.95312703 -0.01122308 C27.74119271 -0.00442651 33.52923104 -0.01491681 39.31729126 -0.02316284 C50.64837271 -0.03649559 61.9793945 -0.03362452 73.31047828 -0.02492492 C82.51970857 -0.01814733 91.72892215 -0.01723198 100.93815422 -0.02049637 C102.24929783 -0.02095607 103.56044144 -0.02141577 104.91131667 -0.0218894 C106.9071617 -0.02260811 108.90300673 -0.02332686 110.89885175 -0.02407007 C135.82542377 -0.03324146 160.75196329 -0.02493539 185.67853029 -0.00877938 C207.81397881 0.00545849 229.94937554 0.00418151 252.08482361 -0.01016235 C276.96805266 -0.02623299 301.851253 -0.03259263 326.73448652 -0.02332556 C329.38795721 -0.02236992 332.04142791 -0.02142681 334.69489861 -0.02049637 C336.65320303 -0.01980213 336.65320303 -0.01980213 338.65106915 -0.01909386 C347.84927598 -0.01650404 357.04746443 -0.02087478 366.24566841 -0.02793503 C377.45504601 -0.03634994 388.66436058 -0.03406995 399.87373096 -0.0180928 C405.59240902 -0.01021027 411.310982 -0.00711831 417.02965927 -0.01704025 C422.26589722 -0.02598776 427.50193281 -0.02105318 432.73815244 -0.0051076 C434.63098835 -0.00176008 436.52384141 -0.00345318 438.41666628 -0.01073496 C452.64632716 -0.06127239 464.79402191 0.64044506 475.53868103 11.12704468 C481.26244365 17.90815261 483.48760131 27.30879116 483.08946228 36.09970093 C481.90473845 44.05232983 478.99557902 50.28755613 473.03477478 55.72470093 C465.40749977 61.25284555 456.89457453 62.53405246 447.69720936 62.51237869 C446.48248554 62.51545764 446.48248554 62.51545764 445.24322185 62.51859879 C442.51843559 62.5242718 439.79369983 62.52281117 437.06890869 62.52139282 C435.10006518 62.52397628 433.13122218 62.52698939 431.16237992 62.53039622 C425.7430279 62.53847168 420.32368913 62.5402561 414.9043318 62.54099369 C409.06299777 62.54284329 403.22167063 62.55039014 397.38034058 62.55712891 C384.60351412 62.5707165 371.82669081 62.57673757 359.04985833 62.58113956 C351.07377763 62.58390119 343.09769815 62.58813839 335.12161827 62.59264374 C313.04331324 62.60489208 290.96500899 62.61517153 268.88670063 62.61851883 C267.45909765 62.61874046 266.03149466 62.61896225 264.60389168 62.61918418 C263.17285123 62.61940482 261.74181078 62.6196253 260.31077033 62.61984563 C257.43988184 62.62028818 254.56899335 62.6207353 251.69810486 62.6211853 C250.98629207 62.62129469 250.27447929 62.62140408 249.54109642 62.62151679 C226.46053007 62.62514742 203.37999513 62.64106799 180.29944082 62.66437567 C155.8945936 62.68897559 131.48976434 62.70269174 107.08490437 62.70388675 C93.78250258 62.70473796 80.48013517 62.71056664 67.17774391 62.72870636 C55.85111619 62.74409729 44.5245423 62.74923373 33.19790611 62.74096826 C27.41850647 62.73705825 21.63921529 62.7380086 15.85982895 62.7520256 C10.56784896 62.76474316 5.27605915 62.76358575 -0.0159205 62.75143489 C-1.92912789 62.74947419 -3.84234865 62.75257351 -5.75553723 62.76127926 C-30.61941601 62.86724524 -30.61941601 62.86724524 -40.25038147 53.38095093 C-46.50447599 46.00111939 -48.79253422 38.22983892 -48.49256897 28.63095093 C-47.53791581 19.76191512 -43.17251482 12.56424397 -36.40272522 6.81063843 C-25.46485614 -0.69089806 -12.66593895 -0.04878896 0 0 Z " fill="#C03D4C" transform="translate(163.25038146972656,397.6190490722656)"/>
<path d="M0 0 C3.54036842 0.00020858 7.08072932 -0.00535647 10.62109399 -0.01005757 C17.5130682 -0.01826189 24.40503385 -0.0211075 31.29701255 -0.02166995 C36.90079007 -0.02214908 42.50456482 -0.0242233 48.10834146 -0.02737057 C64.05250133 -0.03614137 79.99665456 -0.04079441 95.94081686 -0.0400401 C96.79516641 -0.04000014 97.64951595 -0.03996019 98.52975488 -0.03991902 C99.812868 -0.0398577 99.812868 -0.0398577 101.1219026 -0.03979514 C115.02811937 -0.03938744 128.93430924 -0.04899738 142.84051822 -0.06305739 C157.17447849 -0.07743422 171.50842562 -0.08432717 185.84239328 -0.08346361 C193.86839918 -0.08313258 201.8943767 -0.08583965 209.92037606 -0.09664166 C216.73978168 -0.10576287 223.55914596 -0.10790781 230.37855504 -0.10113224 C233.85155832 -0.0978781 237.32448233 -0.09777069 240.79747796 -0.10648549 C244.57108996 -0.11422529 248.34449558 -0.10954761 252.11810327 -0.10185444 C253.20157096 -0.10699801 254.28503865 -0.11214157 255.4013387 -0.117441 C267.98273368 -0.06099348 278.2045328 1.03409222 287.47555566 10.10632122 C294.31373993 17.55837172 296.45860477 24.04883291 296.47164941 34.14538372 C295.73871278 42.54083967 292.01020149 49.98331506 286.03414941 55.89538372 C276.64847162 63.2928059 265.3209928 64.88835898 253.72712731 64.7735728 C252.41760097 64.78066719 251.10807462 64.78776158 249.75886565 64.79507095 C246.16685436 64.81380676 242.57553418 64.80186711 238.98354161 64.78434801 C235.09321579 64.7708759 231.20298465 64.78644601 227.31266809 64.79816997 C219.70875367 64.8164776 212.10509749 64.80808073 204.50119131 64.79008175 C198.31788465 64.77601462 192.13464774 64.77217175 185.95132661 64.77552402 C185.06886127 64.77600146 184.18639593 64.7764789 183.27718921 64.77697081 C181.48408518 64.77799722 179.69098116 64.77905258 177.89787716 64.78013658 C162.06881947 64.7886896 146.23988588 64.77207362 130.41085839 64.74230754 C115.07454236 64.71346867 99.73840505 64.70639075 84.40206933 64.72179973 C67.673339 64.73858486 50.94469337 64.74257293 34.2159608 64.72508937 C32.43002602 64.72324512 30.64409124 64.72141039 28.85815644 64.7195853 C27.54032214 64.71821716 27.54032214 64.71821716 26.19586493 64.71682139 C20.02420261 64.71123073 13.85258184 64.71450937 7.68092179 64.72113025 C0.15376075 64.72888527 -7.37322481 64.72203297 -14.90035064 64.69695521 C-18.73597562 64.68451081 -22.57132809 64.67825165 -26.40696311 64.68949687 C-30.57516272 64.70148582 -34.74265401 64.68218106 -38.91081214 64.66004741 C-40.7073424 64.67240856 -40.7073424 64.67240856 -42.5401662 64.68501943 C-54.42740293 64.56900012 -64.92383883 62.15741001 -73.50100684 53.62194622 C-79.30265038 46.53477473 -81.16282054 37.15071509 -81.52835059 28.14538372 C-80.50070603 19.7706711 -76.13857548 13.65803496 -70.21585059 7.89538372 C-63.36523979 3.43452087 -56.55337392 1.16741811 -48.39199615 0.83408439 C-47.38835182 0.79286014 -46.3847075 0.75163589 -45.35064971 0.70916241 C-44.26596306 0.67048651 -43.18127641 0.6318106 -42.06372046 0.5919627 C-40.9148655 0.54986224 -39.76601054 0.50776179 -38.58234179 0.46438557 C-25.72241755 0.03114 -12.86601126 -0.00475665 0 0 Z " fill="#C03D4C" transform="translate(359.52835059165955,773.8546162843704)"/>
<path d="M0 0 C3.84900016 -0.00296934 7.69799761 -0.00707971 11.54699636 -0.01150417 C22.27052049 -0.02354092 32.99404103 -0.03395542 43.7175715 -0.03737926 C44.3953931 -0.03759883 45.0732147 -0.0378184 45.77157635 -0.03804462 C46.4506115 -0.03826289 47.12964665 -0.03848117 47.82925862 -0.03870606 C49.20432238 -0.03914947 50.57938614 -0.03959604 51.95444989 -0.04004574 C52.63646689 -0.04026717 53.31848388 -0.0404886 54.02116806 -0.04071674 C65.13901892 -0.04468829 76.25680523 -0.06224478 87.37463104 -0.08540526 C98.87371504 -0.10916254 110.37275721 -0.12132457 121.871867 -0.12274718 C128.29537783 -0.123791 134.71879595 -0.12961286 141.14228368 -0.1475668 C147.1615997 -0.16407713 153.18075333 -0.16618862 159.20008397 -0.15742779 C161.39902424 -0.15665998 163.59797342 -0.16096608 165.79689145 -0.17088604 C196.85203932 -0.30273166 196.85203932 -0.30273166 207.12266278 9.20018864 C213.31583625 16.30532391 216.91808275 25.36424367 216.45078778 34.86034489 C214.93961436 45.63645058 209.3975227 52.58487877 201.12266278 59.20018864 C198.35757078 60.75010754 196.24105121 61.43426867 193.12266278 62.20018864 C192.51896265 62.37180075 191.91526252 62.54341286 191.29326844 62.72022533 C178.35907424 65.58022827 163.94853885 64.3425589 150.79771161 64.32958317 C148.47329931 64.33094066 146.14888722 64.33272255 143.82447553 64.33489323 C137.54942224 64.33942738 131.27438551 64.33769426 124.99933195 64.33451414 C119.07404783 64.33222695 113.14876568 64.33397992 107.2234815 64.33544134 C94.76683797 64.33828424 82.31020183 64.3350284 69.85355952 64.32964097 C59.20880052 64.32517927 48.56405244 64.32594595 37.91929364 64.33055973 C25.51061192 64.33593566 13.10193666 64.33800418 0.69325393 64.33494747 C-5.85762985 64.33339742 -12.40850616 64.33315561 -18.95938945 64.33648396 C-25.12614691 64.33939857 -31.29288402 64.33732183 -37.45963931 64.3315897 C-39.70721854 64.3302809 -41.95479953 64.33062372 -44.20237803 64.33285236 C-54.81747886 64.34239763 -65.41146936 64.26717686 -76.01620746 63.76241398 C-76.83001539 63.72472562 -77.64382333 63.68703726 -78.48229212 63.64820683 C-88.82620889 63.09105314 -95.67481084 60.88288344 -102.87733722 53.20018864 C-103.44581378 52.60206364 -104.01429034 52.00393864 -104.59999347 51.38768864 C-110.00821259 45.00944496 -112.3982913 36.85608195 -111.81483722 28.51268864 C-110.591311 21.23731229 -107.09772646 13.48649189 -101.87733722 8.20018864 C-95.25817445 3.57903241 -88.43408106 1.00934365 -80.33886981 0.79326725 C-79.3792482 0.76498632 -79.3792482 0.76498632 -78.4002403 0.73613405 C-76.24030922 0.6763432 -74.08037712 0.63148139 -71.92006183 0.58788395 C-70.33437472 0.55009276 -68.74868871 0.51225576 -67.16300368 0.47437763 C-44.78004782 -0.02278727 -22.3872484 0.01644036 0 0 Z " fill="#BF3C4B" transform="translate(442.87733721733093,980.7998113632202)"/>
<path d="M0 0 C23.21778452 -0.07008884 46.43555159 -0.1229876 69.65342045 -0.15543652 C80.43394063 -0.17090374 91.21439506 -0.19199055 101.99487305 -0.22631836 C111.39140967 -0.25622507 120.78789867 -0.27557606 130.18448156 -0.28226548 C135.15965414 -0.28617557 140.1346905 -0.29536192 145.10981941 -0.31719017 C149.79405956 -0.33757535 154.47810756 -0.34382966 159.16238785 -0.33932304 C160.88005683 -0.34014733 162.59773235 -0.34610087 164.31536293 -0.35761642 C166.66470512 -0.37259256 169.01332649 -0.36893529 171.36268616 -0.36076355 C173.33301866 -0.36491162 173.33301866 -0.36491162 175.34315586 -0.36914349 C179.53587685 0.05409458 182.24023535 1.1622616 186 3 C186.65926947 35.90937968 183.89988772 63.30357847 160.48022461 88.63354492 C154.95698417 94.31959136 148.69283641 98.79379449 142 103 C141.4229834 103.36609375 140.8459668 103.7321875 140.25146484 104.109375 C126.21415606 112.80833032 109.01705415 118.11936283 92.48632812 118.12939453 C91.39151375 118.13202301 91.39151375 118.13202301 90.27458191 118.13470459 C87.86011362 118.13910146 85.44571907 118.13618293 83.03125 118.1328125 C81.3148192 118.13348845 79.59838849 118.13446088 77.88195801 118.13571167 C74.26390685 118.13718763 70.64588032 118.13504576 67.02783203 118.13037109 C62.51499869 118.12480938 58.00222613 118.12795457 53.48939514 118.13382339 C29.31107449 118.16024478 5.16591129 117.77133613 -19 117 C-18.04772042 115.7205425 -17.09408953 114.44209069 -16.13989258 113.1640625 C-15.60898514 112.4520166 -15.0780777 111.7399707 -14.53108215 111.00634766 C-12.68060197 108.58145716 -10.69363668 106.29704538 -8.6875 104 C4.70471544 87.62671806 11.91202191 69.229691 10 48 C9.00815496 41.5739617 7.27756683 35.32563165 5.5625 29.0625 C5.13538083 27.4360679 4.71024273 25.80911423 4.28710938 24.18164062 C2.30957037 16.54237421 2.30957037 16.54237421 0 9 C-0.06740865 7.43881572 -0.08514456 5.8749748 -0.0625 4.3125 C-0.05347656 3.50425781 -0.04445313 2.69601562 -0.03515625 1.86328125 C-0.02355469 1.24839844 -0.01195312 0.63351562 0 0 Z " fill="#70A9DF" transform="translate(682,953)"/>
<path d="M0 0 C1.86714992 -0.00407134 3.73429743 -0.00941636 5.60144043 -0.01593018 C10.6447488 -0.02954174 15.68787191 -0.02433092 20.73118329 -0.01479292 C26.0235881 -0.00716542 31.3159777 -0.01425038 36.60838318 -0.01895142 C45.4926944 -0.02439951 54.37693065 -0.01724171 63.26123047 -0.00292969 C73.51609825 0.0134 83.7707871 0.00810214 94.02565056 -0.0084089 C102.84975033 -0.02204475 111.67379639 -0.02393332 120.49790329 -0.0160929 C125.75970035 -0.01142857 131.02141344 -0.01075743 136.28320503 -0.02070236 C141.23028268 -0.0294005 146.17713068 -0.02329824 151.12418365 -0.00601959 C152.93411567 -0.00207015 154.74406719 -0.00316221 156.55399132 -0.00980759 C169.31400475 -0.05232043 181.48097316 0.278985 191.37670898 9.38818359 C198.70717724 18.87790797 200.48795919 26.44870461 199.37670898 38.38818359 C196.9947391 46.53585627 191.4238977 53.11433145 184.35327148 57.70068359 C173.02357351 63.42870933 159.1696477 62.6797416 146.7746582 62.63110352 C145.15974348 62.63217949 143.54482915 62.63412284 141.92991638 62.63685608 C137.58446083 62.64165955 133.23910969 62.6341033 128.89366674 62.62390304 C124.31331876 62.61503593 119.73297323 62.61688172 115.15261841 62.61726379 C107.45809209 62.61633025 99.76360544 62.60769209 92.0690918 62.59399414 C83.22484774 62.57830565 74.38064716 62.57299513 65.53639019 62.57372969 C56.05561698 62.5744103 46.57486011 62.56743756 37.09409189 62.55828309 C34.39309913 62.55617127 31.69210908 62.55544458 28.99111557 62.55504417 C-3.34286857 62.5454486 -3.34286857 62.5454486 -15.62670898 62.0222168 C-16.76568728 61.980831 -16.76568728 61.980831 -17.92767525 61.93860912 C-24.02628279 61.61039278 -28.67792734 59.89949725 -33.62329102 56.38818359 C-34.53079102 55.85193359 -35.43829102 55.31568359 -36.37329102 54.76318359 C-44.41110036 46.27882929 -45.97079307 36.76857565 -45.83032227 25.50537109 C-45.31252032 17.70903233 -40.96614464 12.67333902 -35.62329102 7.38818359 C-25.62293802 -1.02120416 -12.28543197 -0.04516286 0 0 Z " fill="#BE3E4D" transform="translate(795.623291015625,779.61181640625)"/>
<path d="M0 0 C1.68804526 -0.00542862 3.37608578 -0.01255541 5.06411743 -0.02124023 C9.6241552 -0.03939003 14.18382872 -0.03244037 18.7438724 -0.01972389 C23.53132992 -0.00955112 28.3187576 -0.01900155 33.10621643 -0.02526855 C41.1449235 -0.03253325 49.18348329 -0.02298897 57.22216797 -0.00390625 C66.4949177 0.0178528 75.76731546 0.0108134 85.04005665 -0.01121187 C93.02256022 -0.02940836 101.0049583 -0.03190325 108.98747593 -0.0214572 C113.74576744 -0.01524462 118.50389393 -0.01432459 123.26217461 -0.02760315 C127.73819821 -0.03922281 132.21377151 -0.03102516 136.68974686 -0.00802612 C138.32509809 -0.00277119 139.96048772 -0.00419719 141.59582329 -0.01307678 C154.17740165 -0.07505414 165.75551032 1.26423335 175.15844727 10.51757812 C180.61045811 17.09615243 182.69138502 24.91974691 182.40454102 33.42382812 C181.49000091 41.20467727 178.70747757 48.87467325 173.15844727 54.51757812 C165.20455744 59.79049265 158.66977298 62.63251909 149.18370056 62.66474915 C148.48158953 62.66842583 147.77947849 62.67210252 147.05609137 62.67589062 C144.70340243 62.6869035 142.3507577 62.69076726 139.99804688 62.69458008 C138.31089132 62.70084667 136.62373715 62.70749365 134.93658447 62.7144928 C129.39466306 62.73551699 123.85274144 62.74589549 118.31079102 62.75585938 C116.40045215 62.75990792 114.49011343 62.76402487 112.57977486 62.76820946 C103.60163512 62.78725964 94.62350359 62.80148952 85.64534754 62.80982143 C75.29577824 62.81958546 64.94642329 62.84588394 54.59692949 62.88632232 C46.58909806 62.91653263 38.5813279 62.93129507 30.57344061 62.93460244 C25.79490078 62.93694783 21.01658998 62.94584126 16.2381115 62.97106361 C11.73759923 62.99443468 7.23746531 62.99854145 2.73690796 62.98830223 C1.09186605 62.98780891 -0.55319506 62.99406891 -2.19817924 63.00785828 C-12.91497454 63.09261214 -23.26111122 62.85485716 -31.71655273 55.39257812 C-38.95293582 47.2364629 -42.33852372 36.81198281 -41.84155273 25.95507812 C-40.59366549 17.93704399 -35.40966819 11.00106966 -29.10950565 6.10100555 C-20.07782424 -0.20468623 -10.56870585 -0.05730847 0 0 Z " fill="#C03D4C" transform="translate(259.841552734375,883.482421875)"/>
<path d="M0 0 C2.78761623 0.94648291 5.58143914 1.87299889 8.37646484 2.79736328 C13.42905375 4.47053078 18.47665395 6.15810159 23.52099609 7.85595703 C23.22658977 12.14034379 21.68248301 14.07542096 18.5222168 16.90014648 C17.71723755 17.58983521 17.71723755 17.58983521 16.89599609 18.29345703 C16.0745813 19.02665161 16.0745813 19.02665161 15.23657227 19.7746582 C12.51338612 22.19226699 9.73096892 24.46281578 6.83349609 26.66845703 C1.47005033 31.16215483 -1.98250142 37.89292953 -5.47900391 43.85595703 C-5.99978516 44.72220703 -6.52056641 45.58845703 -7.05712891 46.48095703 C-12.73627219 59.9611213 -11.9085437 74.04440284 -11.83935547 88.39404297 C-11.83080205 91.32976603 -11.85240383 94.26410627 -11.87744141 97.19970703 C-11.8640976 98.09556519 -11.85075378 98.99142334 -11.83700562 99.91442871 C-11.85194565 101.17229187 -11.85194565 101.17229187 -11.8671875 102.45556641 C-11.86360733 103.55257874 -11.86360733 103.55257874 -11.85995483 104.67175293 C-12.84262093 108.13891478 -14.68345652 109.65884373 -17.47900391 111.85595703 C-20.60366821 112.47068787 -20.60366821 112.47068787 -24.14941406 112.45532227 C-24.79881454 112.45926498 -25.44821503 112.4632077 -26.11729431 112.4672699 C-28.25168433 112.47395233 -30.38390742 112.44488748 -32.51806641 112.41455078 C-34.00588568 112.41029801 -35.49371159 112.40797181 -36.98153687 112.40748596 C-40.09363044 112.40133041 -43.20500145 112.37867622 -46.31689453 112.34301758 C-50.30624408 112.29766669 -54.29494138 112.28298695 -58.28452492 112.27928066 C-61.35403882 112.27485346 -64.42341583 112.25955344 -67.49287033 112.24040413 C-68.96407318 112.2315256 -70.43529061 112.22479381 -71.90651321 112.22024345 C-73.96038659 112.21120406 -76.0136694 112.18881927 -78.06738281 112.16235352 C-79.23588776 112.15171371 -80.4043927 112.14107391 -81.60830688 112.13011169 C-84.47900391 111.85595703 -84.47900391 111.85595703 -87.47900391 109.85595703 C-88.68571812 106.23581439 -88.63444503 102.91585558 -88.64013672 99.14672852 C-88.64510162 98.36256058 -88.65006653 97.57839264 -88.65518188 96.77046204 C-88.66980039 94.17264936 -88.67660714 91.57489787 -88.68212891 88.97705078 C-88.68788329 87.1668345 -88.69364099 85.35661824 -88.69940186 83.54640198 C-88.7099128 79.7458569 -88.71575397 75.94533296 -88.71923828 72.14477539 C-88.72470471 67.29514347 -88.7486925 62.44579491 -88.77721024 57.59625149 C-88.79592138 53.85310579 -88.80104684 50.11002695 -88.80257416 46.36683846 C-88.8055852 44.58041915 -88.81356089 42.79400058 -88.82675934 41.00762749 C-88.94074698 24.38480845 -86.38382205 11.21582995 -74.46337891 -1.31591797 C-55.54832322 -18.74159919 -21.61468989 -7.34765619 0 0 Z " fill="#71AFDE" transform="translate(863.47900390625,212.14404296875)"/>
<path d="M0 0 C0.89136154 -0.00571014 1.78272308 -0.01142029 2.70109558 -0.01730347 C3.67153305 -0.01842133 4.64197052 -0.01953918 5.64181519 -0.02069092 C7.18404503 -0.02813828 7.18404503 -0.02813828 8.75743103 -0.03573608 C12.1614448 -0.05034892 15.56541191 -0.05715927 18.9694519 -0.06268311 C21.33874513 -0.06843651 23.70803834 -0.07419422 26.07733154 -0.07995605 C31.04886085 -0.09046439 36.02037399 -0.09630776 40.99191284 -0.09979248 C47.34699322 -0.10526829 53.70185839 -0.1292777 60.05687141 -0.15776443 C64.95380262 -0.17643718 69.85068254 -0.18159895 74.74764633 -0.18312836 C77.0894882 -0.18614635 79.43132935 -0.19414589 81.77313614 -0.20731354 C85.05895327 -0.22446613 88.34425207 -0.22247083 91.63009644 -0.21600342 C93.06753456 -0.22982559 93.06753456 -0.22982559 94.53401184 -0.243927 C103.8662163 -0.18670627 113.30430026 1.88324797 120.5241394 8.14044189 C127.95986221 16.95877075 130.89297144 26.64990548 130.5241394 38.14044189 C129.41988546 44.57845072 125.20344031 48.94112346 120.8366394 53.51544189 C120.35622192 54.0279248 119.87580444 54.54040771 119.38082886 55.06842041 C112.24870304 62.09094678 103.61898002 62.58490158 94.04098511 62.52862549 C92.92764801 62.53388245 91.81431091 62.5391394 90.66723633 62.54455566 C87.01131899 62.55768917 83.35584191 62.54904266 79.69992065 62.53887939 C77.1488283 62.5409016 74.5977365 62.54381426 72.04664612 62.5475769 C66.71152687 62.5519909 61.37656372 62.54588597 56.04147339 62.53155518 C49.88434781 62.5152067 43.72751996 62.52053982 37.57040149 62.53703439 C31.62820488 62.55231207 25.68610038 62.5506664 19.74388695 62.54188919 C17.22291204 62.53988927 14.70192953 62.54233913 12.18096352 62.54932785 C8.66014084 62.55694921 5.13989019 62.54532879 1.61911011 62.52862549 C0.57948624 62.53469818 -0.46013763 62.54077087 -1.53126526 62.54702759 C-9.5864537 62.47625718 -14.7437517 60.29712678 -20.73757935 54.94122314 C-27.73117582 47.69617152 -30.49272472 40.3153475 -30.9133606 30.32794189 C-30.73256555 20.8462464 -27.53419842 15.05875699 -21.1633606 8.20294189 C-17.1240955 4.38583637 -13.81612382 2.58864887 -8.4758606 1.14044189 C-7.83212053 0.95771351 -7.18838047 0.77498512 -6.52513313 0.58671951 C-4.29337294 0.10070089 -2.28348114 0.00879436 0 0 Z " fill="#BF3C4C" transform="translate(420.4758605957031,496.85955810546875)"/>
<path d="M0 0 C1.81931076 -0.00322231 3.63862127 -0.00658707 5.45793152 -0.01008606 C9.2440145 -0.01602842 13.0300748 -0.01793072 16.81616211 -0.01733398 C21.64869743 -0.01723189 26.48108738 -0.03095424 31.31358814 -0.04810619 C35.06010092 -0.05925465 38.80657864 -0.06125242 42.55310631 -0.06072426 C44.33475946 -0.06189737 46.11641373 -0.0662812 47.89805031 -0.07405663 C50.39022583 -0.08392767 52.88208626 -0.08095217 55.37426758 -0.07495117 C56.09602676 -0.08057068 56.81778595 -0.08619019 57.56141663 -0.09197998 C68.21003168 -0.02729562 75.12412942 2.66953541 82.7421875 10.05859375 C89.10386656 16.83371526 92.12711234 24.6924389 91.9375 34.03515625 C91.35045728 42.69800286 87.54653666 50.19991125 81.60546875 56.48046875 C72.17535098 62.13853941 64.15347257 64.30899031 53.29614258 64.36083984 C52.34587189 64.36901733 51.3956012 64.37719482 50.41653442 64.38562012 C47.2776959 64.4103928 44.13890238 64.42696973 41 64.44140625 C39.9248432 64.44672993 38.84968639 64.4520536 37.74194908 64.4575386 C32.05054819 64.48423542 26.35916896 64.50362106 20.66772461 64.51806641 C15.96830765 64.53140039 11.26932541 64.55924876 6.57006836 64.60009766 C0.88433852 64.64951424 -4.80099734 64.67419845 -10.48693275 64.68129349 C-12.64738583 64.68798907 -14.80783069 64.70316673 -16.96816063 64.7271843 C-20.00031227 64.75897033 -23.03095642 64.75885217 -26.06323242 64.75146484 C-27.38610512 64.77607285 -27.38610512 64.77607285 -28.73570251 64.80117798 C-36.26072597 64.7266156 -42.6948789 62.33704194 -48.32902813 57.25325584 C-56.25350989 48.95680792 -58.55128368 39.58668922 -58.4140625 28.421875 C-57.87846152 20.00384447 -54.04835261 15.02185209 -48.20703125 9.16796875 C-47.72105469 8.67039062 -47.23507813 8.1728125 -46.734375 7.66015625 C-35.23260332 -3.0406564 -14.59030663 0.00614624 0 0 Z " fill="#C03D4C" transform="translate(143.20703125,773.83203125)"/>
<path d="M0 0 C0.90150284 -0.0049649 1.80300568 -0.00992981 2.73182678 -0.01504517 C5.70835134 -0.02962528 8.68482258 -0.03646255 11.66137695 -0.04199219 C13.73777772 -0.04774788 15.81417847 -0.05350556 17.89057922 -0.05926514 C22.24411262 -0.0697639 26.59762761 -0.07561365 30.95117188 -0.07910156 C36.51144584 -0.08457817 42.07147394 -0.10859326 47.63167095 -0.13707352 C51.92211095 -0.15576106 56.2124925 -0.16090879 60.50296974 -0.16243744 C62.5517492 -0.16545164 64.60052794 -0.1734382 66.6492672 -0.18662262 C69.52547907 -0.20380817 72.40110041 -0.20177229 75.27734375 -0.1953125 C76.11250519 -0.20452728 76.94766663 -0.21374207 77.80813599 -0.22323608 C86.9138841 -0.15964436 95.86679567 2.25596012 102.9621582 8.16113281 C110.24586208 16.00639209 113.12579693 24.51097868 112.9621582 35.16113281 C111.97944345 43.91505242 107.1187621 49.20551771 100.9621582 55.16113281 C100.11524414 55.98677734 100.11524414 55.98677734 99.2512207 56.82910156 C93.22464546 62.26577394 86.93947105 62.45698885 79.24414062 62.43579102 C78.28236404 62.44090195 77.32058746 62.44601288 76.32966614 62.45127869 C73.15892261 62.46514708 69.98839716 62.46421972 66.81762695 62.46191406 C64.60573751 62.46580298 62.3938488 62.47013805 60.18196106 62.47489929 C55.54771504 62.48235595 50.9135452 62.48207456 46.27929688 62.47680664 C40.35461308 62.47101794 34.43024251 62.48793143 28.50561047 62.51115131 C23.93726289 62.52591931 19.36899016 62.52675608 14.80062294 62.52364159 C12.61705213 62.52415342 10.43347699 62.52936523 8.24992943 62.53945351 C5.18920224 62.55185757 2.12907768 62.54500184 -0.93164062 62.53344727 C-2.27157578 62.54491287 -2.27157578 62.54491287 -3.63858032 62.55661011 C-12.95079396 62.47932043 -21.03510604 59.99173143 -27.85424805 53.40722656 C-33.62112571 47.25508776 -36.61160747 40.48906187 -37.2878418 32.03613281 C-36.60464419 21.44656996 -32.34433203 13.93133849 -24.6003418 6.84863281 C-17.19098041 0.82954895 -9.2187731 0.01219153 0 0 Z " fill="#BF3D4C" transform="translate(51.037841796875,617.8388671875)"/>
<path d="M0 0 C2.06879275 -0.00202478 4.1375848 -0.00493957 6.20637512 -0.00869751 C10.52233743 -0.01309886 14.83811236 -0.0067587 19.15405273 0.00732422 C24.66830636 0.02444701 30.18212282 0.01454127 35.69636059 -0.00339317 C39.9610368 -0.01426278 44.22561029 -0.01077064 48.49028969 -0.0030098 C50.52313604 -0.00101825 52.55599192 -0.00343005 54.58882713 -0.01044846 C57.43340977 -0.01811905 60.27729511 -0.00638199 63.12182617 0.01025391 C63.94958557 0.00418121 64.77734497 -0.00189148 65.63018799 -0.00814819 C74.29462004 0.08510907 81.38551364 2.32193485 87.7265625 8.30859375 C93.48012811 14.78892555 97.07765059 22.05200252 97.89453125 30.7109375 C97.10043787 40.08123933 93.79079635 48.98063303 86.47265625 55.1875 C77.40749439 61.53311331 68.32429013 63.55034932 57.34863281 63.54370117 C56.54451965 63.54705978 55.74040649 63.5504184 54.91192627 63.55387878 C52.26548701 63.56334207 49.61911136 63.5653297 46.97265625 63.56640625 C45.12188695 63.56962252 43.2711179 63.57298686 41.42034912 63.57649231 C37.54357311 63.58247237 33.66681936 63.58433341 29.79003906 63.58374023 C24.84303067 63.58363879 19.89616636 63.59727814 14.94919205 63.61451244 C11.12627518 63.62567881 7.30339262 63.62765801 3.48046112 63.62713051 C1.6577683 63.62830413 -0.1649256 63.63269093 -1.98760223 63.64046288 C-17.09811909 63.69885325 -31.0080651 63.51376584 -42.79296875 52.7109375 C-49.60357688 45.30750316 -51.12963389 37.63809637 -50.796875 27.73046875 C-49.68876939 17.98599364 -43.96842296 11.31394461 -36.73046875 5.0859375 C-25.19921101 -0.78847682 -12.58791291 -0.04361059 0 0 Z " fill="#C03D4C" transform="translate(79.41796875,500.6015625)"/>
<path d="M0 0 C3.1699753 -0.00219612 6.33960687 -0.02045413 9.50952148 -0.03930664 C45.4371787 -0.14252434 45.4371787 -0.14252434 56.07788086 10.07592773 C61.12427481 16.35918294 64.58397519 24.86740264 64.37475586 33.00952148 C62.94260426 44.74052801 56.98251918 52.09503286 48.29663086 59.62280273 C39.58949494 63.89100662 30.42529188 64.62574294 20.87084961 64.51342773 C19.18509575 64.51061798 19.18509575 64.51061798 17.46528625 64.50775146 C15.10475668 64.50107651 12.7442373 64.48725416 10.38378906 64.46655273 C6.81621709 64.43547336 3.24909042 64.42557597 -0.31860352 64.41967773 C-43.87594285 64.27409128 -43.87594285 64.27409128 -55.89086914 52.18530273 C-61.10722698 45.80549253 -63.41137871 38.56282573 -63.13696289 30.31420898 C-62.22238332 22.40236981 -59.28912288 15.09176028 -53.89086914 9.18530273 C-38.77900814 -2.46030632 -18.0668973 -0.00139826 0 0 Z " fill="#C03D4B" transform="translate(225.890869140625,980.814697265625)"/>
</svg>
